<svg width="149" height="48" viewBox="0 0 149 48" fill="none" xmlns="http://www.w3.org/2000/svg">
<path d="M28.4696 13.605C28.8353 11.1666 29.7258 9.48911 30.6039 8.37487C31.5491 7.21165 32.148 7.30436 32.0279 6.94752C31.9519 6.71837 30.7964 6.71662 29.6586 6.90029C26.7576 7.37083 22.3017 8.66524 17.9696 11.3625C10.7611 15.8457 6.16917 23.92 8.90946 29.3023C10.5331 32.4964 13.1445 32.834 15.0579 32.5576C15.0579 32.5576 16.3671 36.4041 20.8317 39.822C20.959 39.9043 21.0049 39.9008 21.0367 39.8833C21.2222 39.7731 20.7399 39.3952 20.5049 39.0979C19.5349 38.0116 18.337 36.4951 17.5614 34.877C16.6109 32.8935 15.0879 29.3023 16.5279 22.9825C17.2293 19.9021 18.6144 17.4095 19.8476 15.6603C20.0137 15.4399 20.2363 15.167 20.3476 15.0183C21.0402 14.0895 20.9908 14.5723 20.9413 14.6685C20.8494 14.8522 20.6427 15.202 20.5067 15.5256C20.1074 16.3792 19.6639 17.483 19.2045 18.9051C17.5561 24.0023 18.9978 27.4674 18.9978 27.4674L20.6462 24.6127C21.4713 23.1836 22.8106 21.807 23.9431 20.7872C24.2098 20.5668 24.9713 19.9336 25.0703 19.9336C25.1445 19.9336 25.2823 19.9493 24.959 20.3202C23.9042 21.5306 22.4289 23.6786 21.6763 26.0401C20.4395 29.9128 21.1745 34.6042 24.7646 35.4193C29.0084 36.3796 31.959 33.4549 32.0756 28.6866C32.2046 23.0892 27.648 19.1062 28.4731 13.6032M21.6286 21.6601C21.2717 22.5574 20.6568 22.846 20.2204 22.7008C19.9731 22.6204 19.3317 22.2356 19.671 21.1143C20.012 19.9913 20.9166 19.7692 21.2911 19.9284C21.7752 20.1365 21.9855 20.7627 21.6303 21.6601" fill="white"/>
<path d="M131.522 39.7307H133.26V33.11H131.522V39.7307ZM127.121 33.11H125.382V39.7307C125.695 39.757 126.036 39.7797 126.405 39.7972C126.775 39.8147 127.214 39.8234 127.722 39.8234C128.283 39.8234 128.757 39.7727 129.14 39.6713C129.524 39.5698 129.836 39.4194 130.077 39.2217C130.317 39.0223 130.492 38.7739 130.598 38.4731C130.706 38.1739 130.759 37.8241 130.759 37.427C130.759 37.1367 130.718 36.8655 130.638 36.6137C130.559 36.3618 130.425 36.1431 130.237 35.9577C130.05 35.7723 129.805 35.6289 129.501 35.5274C129.197 35.4259 128.819 35.3752 128.363 35.3752C128.184 35.3752 127.987 35.3822 127.767 35.3945C127.548 35.4085 127.333 35.4329 127.119 35.4679V33.11H127.121ZM127.121 36.6976C127.363 36.6364 127.63 36.6049 127.923 36.6049C128.297 36.6049 128.566 36.6766 128.725 36.8236C128.886 36.9687 128.967 37.1839 128.967 37.4655C128.967 37.7751 128.886 38.0008 128.725 38.1477C128.564 38.2929 128.283 38.3664 127.884 38.3664C127.642 38.3664 127.389 38.3401 127.121 38.2876V36.6976ZM120.326 35.8108V34.4202C120.425 34.4114 120.532 34.4027 120.654 34.3939C120.775 34.3852 120.937 34.3799 121.142 34.3799C121.552 34.3799 121.835 34.4394 121.992 34.5583C122.147 34.6773 122.225 34.8522 122.225 35.0814C122.225 35.293 122.133 35.4679 121.951 35.6044C121.769 35.7408 121.534 35.809 121.25 35.809H120.326V35.8108ZM120.326 36.8708H121.221C121.667 36.8708 121.978 36.9425 122.151 37.0894C122.324 37.2346 122.412 37.4235 122.412 37.6527C122.412 37.9256 122.31 38.1302 122.105 38.2614C121.9 38.3943 121.555 38.4608 121.075 38.4608C120.914 38.4608 120.78 38.4556 120.674 38.4468C120.568 38.4381 120.451 38.4241 120.326 38.4066V36.8708ZM118.628 39.7185C118.941 39.7535 119.305 39.7832 119.725 39.8042C120.146 39.8269 120.541 39.8374 120.916 39.8374C122.048 39.8374 122.87 39.6748 123.382 39.3477C123.895 39.0206 124.151 38.5273 124.151 37.8643C124.151 37.441 124.045 37.0947 123.831 36.8253C123.617 36.5559 123.269 36.3688 122.789 36.2621V36.2096C123.172 36.0767 123.453 35.865 123.63 35.5746C123.81 35.2825 123.898 34.9834 123.898 34.6738C123.898 34.1175 123.691 33.7012 123.276 33.4231C122.861 33.145 122.163 33.0051 121.183 33.0051C120.674 33.0051 120.199 33.019 119.759 33.0453C119.317 33.0715 118.941 33.0978 118.628 33.1257V39.7202V39.7185ZM115.926 39.7307H117.919L116.114 36.6451L115.365 36.1291L116.047 35.6271L117.665 33.1118H115.806L114.241 35.7461L113.826 35.9315V33.1118H112.087V39.7325H113.826V36.9915H114.294L115.926 39.7325V39.7307ZM110.63 38.0095C110.469 38.1145 110.287 38.2054 110.08 38.2807C109.875 38.3559 109.626 38.3926 109.331 38.3926C109.062 38.3926 108.829 38.3419 108.63 38.2404C108.43 38.139 108.266 38.0008 108.142 37.8241C108.017 37.6474 107.923 37.4393 107.861 37.2014C107.799 36.9617 107.767 36.7029 107.767 36.4195C107.767 35.7303 107.893 35.23 108.142 34.9169C108.391 34.6038 108.757 34.4464 109.239 34.4464C109.497 34.4464 109.727 34.4726 109.928 34.5269C110.13 34.5793 110.331 34.6546 110.538 34.7508L110.951 33.3461C110.711 33.2237 110.441 33.1222 110.142 33.0418C109.843 32.9631 109.448 32.9228 108.958 32.9228C107.986 32.9228 107.246 33.2255 106.737 33.8289C106.229 34.4341 105.976 35.2965 105.976 36.4177C105.976 36.939 106.027 37.4148 106.13 37.8468C106.232 38.2806 106.4 38.648 106.631 38.9523C106.863 39.2567 107.165 39.4928 107.534 39.6608C107.903 39.8287 108.358 39.9127 108.893 39.9127C109.294 39.9127 109.684 39.8619 110.062 39.7605C110.442 39.659 110.766 39.5121 111.032 39.3179L110.631 38.0078L110.63 38.0095ZM100.946 34.8575C101.186 34.5391 101.52 34.3799 101.949 34.3799C102.441 34.3799 102.789 34.5671 102.994 34.9432C103.198 35.3175 103.301 35.8108 103.301 36.4195C103.301 37.1262 103.19 37.6422 102.967 37.9693C102.744 38.2964 102.405 38.4591 101.951 38.4591C101.711 38.4591 101.504 38.4083 101.329 38.3069C101.156 38.2054 101.017 38.062 100.909 37.8766C100.801 37.6912 100.721 37.476 100.668 37.2276C100.615 36.981 100.587 36.7116 100.587 36.4212C100.587 35.6971 100.707 35.1758 100.949 34.8592M98.99 37.8521C99.119 38.2859 99.3151 38.6532 99.5783 38.9576C99.8416 39.262 100.168 39.4981 100.561 39.666C100.953 39.8339 101.418 39.9179 101.951 39.9179C102.949 39.9179 103.723 39.6153 104.273 39.0118C104.82 38.4066 105.096 37.5442 105.096 36.423C105.096 35.9017 105.031 35.426 104.902 34.9921C104.773 34.5601 104.578 34.191 104.32 33.8866C104.062 33.5823 103.736 33.3461 103.343 33.1782C102.951 33.0103 102.486 32.9263 101.953 32.9263C100.955 32.9263 100.179 33.2289 99.626 33.8324C99.073 34.4376 98.7957 35.3 98.7957 36.4212C98.7957 36.9425 98.861 37.4183 98.99 37.8503M95.7197 39.7307H97.5518V30.4617H95.8946L93.5271 34.672L93.126 35.7583H93.073L92.6313 34.6983L90.1296 30.46H88.4582V39.729H90.1967V34.9082L89.9299 33.0803H89.997L90.5854 34.5496L92.6843 38.0183H93.2727L95.2656 34.5618L95.8398 33.0785H95.9211L95.7197 34.9187V39.7255V39.7307ZM79.9564 38.2142C79.8097 38.0777 79.7355 37.8853 79.7355 37.6387C79.7355 37.462 79.7938 37.3168 79.9087 37.2014C80.0253 37.0859 80.179 36.9985 80.3769 36.9355C80.573 36.8743 80.7974 36.8341 81.0518 36.8166C81.3062 36.7991 81.5712 36.8026 81.8468 36.8306V37.6912C81.7497 37.8678 81.596 38.034 81.3928 38.1879C81.1861 38.3419 80.9105 38.4188 80.5624 38.4188C80.3044 38.4188 80.1013 38.3506 79.9546 38.2142M78.7709 34.7787C79.02 34.6633 79.3398 34.5706 79.7267 34.5006C80.1154 34.4307 80.4829 34.3957 80.8309 34.3957C81.2956 34.3957 81.5942 34.5041 81.7267 34.7193C81.861 34.9362 81.8963 35.2913 81.8345 35.7863C81.2461 35.76 80.7126 35.7793 80.2355 35.8458C79.7585 35.9122 79.3486 36.0312 79.0059 36.2043C78.6613 36.3758 78.3998 36.6014 78.2161 36.8795C78.0324 37.1577 77.9405 37.4988 77.9405 37.9046C77.9405 38.1967 77.9899 38.4591 78.0871 38.6935C78.1861 38.9279 78.3239 39.1308 78.5023 39.3022C78.6808 39.4736 78.8945 39.6065 79.1437 39.6993C79.3928 39.792 79.6737 39.8392 79.9864 39.8392C80.4847 39.8392 80.8928 39.7395 81.2108 39.5418C81.5271 39.3424 81.7744 39.1063 81.9529 38.8334H82.02L82.3009 39.7482H83.7179C83.6119 39.4299 83.5447 39.0923 83.5165 38.7354C83.49 38.3769 83.4794 38.0095 83.4829 37.6299C83.4882 37.2504 83.5041 36.8638 83.5306 36.472C83.5571 36.0784 83.5712 35.6883 83.5712 35.3C83.5712 34.9467 83.5324 34.6283 83.4564 34.3467C83.3804 34.0633 83.2514 33.8219 83.0677 33.619C82.8857 33.4161 82.6384 33.2587 82.3256 33.1485C82.0129 33.0383 81.626 32.9823 81.1613 32.9823C80.626 32.9823 80.1136 33.0278 79.6242 33.1222C79.1331 33.215 78.709 33.3409 78.3539 33.5001L78.7691 34.7857L78.7709 34.7787ZM72.5376 38.2876C72.6436 38.0935 72.7426 37.8503 72.8327 37.5582C72.921 37.2661 72.9988 36.953 73.0659 36.6172C73.133 36.2813 73.1878 35.935 73.2338 35.5781C73.2779 35.2195 73.3097 34.8819 73.3274 34.5653H74.732V38.2876H72.5376ZM77.4458 38.2072H76.4687V33.11H71.8133C71.8133 33.9304 71.7726 34.6423 71.6931 35.2423C71.6136 35.8423 71.5164 36.346 71.4051 36.7518C71.2938 37.1577 71.1807 37.4778 71.0712 37.7122C70.9599 37.9466 70.868 38.111 70.7974 38.2089H70.0076V41.2421H71.2779L71.4793 39.7325H75.974L76.1755 41.2421H77.4458V38.2089V38.2072ZM65.4475 34.8575C65.6878 34.5391 66.0235 34.3799 66.451 34.3799C66.9422 34.3799 67.2885 34.5671 67.4935 34.9432C67.6984 35.3175 67.8009 35.8108 67.8009 36.4195C67.8009 37.1262 67.6896 37.6422 67.467 37.9693C67.2443 38.2964 66.9051 38.4591 66.4493 38.4591C66.209 38.4591 66.0023 38.4083 65.8274 38.3069C65.6542 38.2054 65.5129 38.062 65.4051 37.8766C65.2991 37.6912 65.2178 37.476 65.1648 37.2276C65.1118 36.981 65.0853 36.7116 65.0853 36.4212C65.0853 35.6971 65.2055 35.1758 65.4458 34.8592M63.4864 37.8521C63.6154 38.2859 63.8115 38.6532 64.0747 38.9576C64.338 39.262 64.6648 39.4981 65.0588 39.666C65.4511 39.8339 65.9157 39.9179 66.4493 39.9179C67.4475 39.9179 68.2214 39.6153 68.7708 39.0118C69.3186 38.4066 69.5924 37.5442 69.5924 36.423C69.5924 35.9017 69.527 35.426 69.3981 34.9921C69.2691 34.5601 69.0747 34.191 68.8168 33.8866C68.5588 33.5823 68.2337 33.3461 67.8397 33.1782C67.4475 33.0103 66.9846 32.9263 66.4493 32.9263C65.4511 32.9263 64.6754 33.2289 64.1224 33.8324C63.5694 34.4376 63.292 35.3 63.292 36.4212C63.292 36.9425 63.3574 37.4183 63.4864 37.8503M60.3238 34.8575C60.5199 35.1758 60.6189 35.6254 60.6189 36.2078C60.6189 37.0125 60.4934 37.588 60.2443 37.9361C59.9952 38.2841 59.6206 38.4591 59.1206 38.4591C58.8804 38.4591 58.686 38.4293 58.5394 38.3734C58.3927 38.3156 58.2567 38.2387 58.1312 38.1425V35.3875C58.2373 35.0516 58.3874 34.8015 58.5782 34.6336C58.7708 34.4656 59.0358 34.3817 59.3733 34.3817C59.8097 34.3817 60.1277 34.5409 60.3238 34.8592M56.391 42.3808H58.1312V39.666C58.3097 39.7552 58.4881 39.8182 58.6666 39.8584C58.845 39.8969 59.0729 39.9179 59.3486 39.9179C59.838 39.9179 60.2744 39.8339 60.6525 39.666C61.0305 39.4981 61.3521 39.255 61.6154 38.9383C61.8786 38.62 62.0765 38.2334 62.2108 37.7804C62.345 37.3256 62.4122 36.8166 62.4122 36.2516C62.4122 35.0849 62.2019 34.24 61.7832 33.7152C61.3645 33.1905 60.7355 32.9281 59.8963 32.9281C59.4422 32.9281 59.0553 33.0068 58.7408 33.166C58.4245 33.3252 58.1489 33.5718 57.9175 33.9076H57.8627L57.663 33.1135H56.391V42.3825V42.3808ZM51.0411 34.8592C51.2814 34.5409 51.6153 34.3817 52.0447 34.3817C52.5358 34.3817 52.8839 34.5688 53.0888 34.9449C53.2938 35.3192 53.3963 35.8125 53.3963 36.4212C53.3963 37.1279 53.2849 37.6439 53.0623 37.971C52.8379 38.2981 52.5005 38.4608 52.0464 38.4608C51.8061 38.4608 51.5994 38.4101 51.4245 38.3086C51.2514 38.2072 51.11 38.0637 51.004 37.8783C50.8962 37.6929 50.8167 37.4778 50.7637 37.2294C50.7107 36.9827 50.6842 36.7134 50.6842 36.423C50.6842 35.6988 50.8044 35.1776 51.0464 34.861M49.0871 37.8538C49.216 38.2876 49.4121 38.655 49.6754 38.9593C49.9386 39.2637 50.2655 39.4998 50.6595 39.6678C51.0517 39.8357 51.5164 39.9197 52.05 39.9197C53.0482 39.9197 53.8221 39.617 54.3698 39.0136C54.9175 38.4083 55.1913 37.546 55.1913 36.4247C55.1913 35.9035 55.1259 35.4277 54.9987 34.9939C54.8698 34.5618 54.6754 34.1928 54.4175 33.8884C54.1577 33.584 53.8327 33.3479 53.4404 33.18C53.0482 33.012 52.5853 32.9281 52.05 32.9281C51.0517 32.9281 50.2761 33.2307 49.7231 33.8342C49.1701 34.4394 48.8927 35.3018 48.8927 36.423C48.8927 36.9443 48.9581 37.42 49.0871 37.8521M48.6118 33.1118H44.292V39.7325H46.0853V34.6353H48.6136V33.1135L48.6118 33.1118Z" fill="white"/>
<path d="M144.749 23.9388C144.277 23.9475 143.917 23.8723 143.673 23.7131C143.428 23.554 143.306 23.3073 143.306 22.9715C143.306 22.6356 143.417 22.3837 143.64 22.2158C143.862 22.0479 144.175 21.9639 144.576 21.9639C144.684 21.9639 144.795 21.9727 144.91 21.9902C145.026 22.0077 145.133 22.0391 145.231 22.0829V23.9108L144.749 23.937V23.9388ZM145.231 27.3147H146.97V20.7202C146.694 20.6678 146.369 20.6188 146 20.5751C145.631 20.5296 145.231 20.5086 144.802 20.5086C143.687 20.5086 142.86 20.6992 142.32 21.0771C141.781 21.4567 141.511 22.0479 141.511 22.8525C141.511 23.365 141.652 23.7901 141.938 24.1312C142.223 24.4705 142.585 24.6752 143.021 24.7469L142.366 25.2367L141.067 27.3147H143.141L144.426 24.9708L145.228 24.8116V27.3147H145.231ZM138.436 27.3147H140.175V20.694H139.078L136.67 23.8058L136.122 24.7469H136.069L136.148 23.8461V20.6958H134.41V27.3165H135.507L137.889 24.3236L138.465 23.358H138.504L138.438 24.2991V27.3182L138.436 27.3147ZM131.147 27.3147H132.885V20.694H131.147V23.1831H128.966V20.694H127.228V27.3147H128.966V24.7067H131.147V27.3147ZM124.159 22.27C124.341 22.5254 124.413 22.8928 124.378 23.3685H121.905C121.949 22.919 122.079 22.5587 122.297 22.2893C122.514 22.0199 122.85 21.8852 123.302 21.8852C123.693 21.8852 123.977 22.0129 124.159 22.27ZM125.208 25.6198C125.058 25.7352 124.837 25.8472 124.548 25.9574C124.26 26.0676 123.933 26.1235 123.569 26.1235C122.982 26.1235 122.558 25.9818 122.295 25.7002C122.032 25.4168 121.889 24.997 121.862 24.4425H125.862C125.906 24.2134 125.94 23.993 125.961 23.7813C125.982 23.5697 125.995 23.3703 125.995 23.1849C125.995 22.6724 125.919 22.2438 125.767 21.8992C125.617 21.5546 125.415 21.2817 125.164 21.0771C124.913 20.8724 124.629 20.729 124.307 20.6398C123.986 20.5506 123.657 20.5068 123.318 20.5068C122.302 20.5068 121.512 20.799 120.95 21.3814C120.389 21.9639 120.108 22.8385 120.108 24.0035C120.108 25.0897 120.357 25.9434 120.857 26.5661C121.357 27.1888 122.145 27.5002 123.224 27.5002C123.742 27.5002 124.23 27.4284 124.689 27.2815C125.148 27.1346 125.511 26.9579 125.779 26.7445L125.205 25.618L125.208 25.6198ZM117.168 27.3147H118.906V20.694H117.168V23.1831H114.988V20.694H113.249V27.3147H114.988V24.7067H117.168V27.3147ZM108.173 25.7999C108.026 25.6635 107.952 25.4711 107.952 25.2244C107.952 25.0478 108.011 24.9008 108.125 24.7871C108.242 24.6734 108.397 24.5842 108.594 24.523C108.79 24.4618 109.014 24.4216 109.268 24.4041C109.523 24.3866 109.788 24.3901 110.064 24.4181V25.2787C109.966 25.4553 109.814 25.6198 109.609 25.7754C109.405 25.9294 109.127 26.0063 108.779 26.0063C108.521 26.0063 108.318 25.9381 108.17 25.8017M106.986 22.3645C107.235 22.249 107.553 22.1563 107.942 22.0864C108.329 22.0164 108.698 21.9814 109.044 21.9814C109.509 21.9814 109.807 22.0899 109.94 22.305C110.074 22.5219 110.109 22.877 110.048 23.372C109.458 23.3458 108.926 23.365 108.449 23.4315C107.972 23.498 107.562 23.6169 107.217 23.7901C106.874 23.9615 106.611 24.1872 106.427 24.4653C106.245 24.7434 106.154 25.0845 106.154 25.4921C106.154 25.7824 106.203 26.0466 106.302 26.2792C106.401 26.5136 106.537 26.7165 106.717 26.8879C106.896 27.0611 107.109 27.1923 107.359 27.285C107.608 27.3777 107.889 27.4249 108.201 27.4249C108.701 27.4249 109.109 27.3252 109.426 27.1276C109.742 26.9282 109.991 26.692 110.168 26.4191H110.235L110.516 27.3322H111.933C111.825 27.0139 111.76 26.6763 111.733 26.3194C111.707 25.9626 111.694 25.5935 111.7 25.2139C111.703 24.8344 111.719 24.4478 111.747 24.056C111.774 23.6641 111.788 23.2723 111.788 22.884C111.788 22.5307 111.749 22.2123 111.673 21.9307C111.597 21.6473 111.468 21.4059 111.286 21.203C111.104 20.9984 110.857 20.8427 110.544 20.7325C110.231 20.6223 109.844 20.5681 109.382 20.5681C108.846 20.5681 108.334 20.6135 107.843 20.708C107.353 20.8007 106.929 20.9266 106.572 21.0858L106.988 22.3715L106.986 22.3645ZM103.321 22.4432C103.518 22.7616 103.617 23.2111 103.617 23.7936C103.617 24.5965 103.491 25.1737 103.242 25.5218C102.993 25.8699 102.618 26.0448 102.118 26.0448C101.878 26.0448 101.684 26.0168 101.537 25.9591C101.39 25.9014 101.254 25.8244 101.129 25.7265V22.9732C101.235 22.6374 101.385 22.3855 101.576 22.2176C101.767 22.0496 102.033 21.9657 102.373 21.9657C102.809 21.9657 103.125 22.1248 103.323 22.4432M99.3904 29.9648H101.129V27.25C101.307 27.3375 101.486 27.4022 101.664 27.4424C101.843 27.4827 102.071 27.5019 102.346 27.5019C102.837 27.5019 103.272 27.4179 103.65 27.25C104.028 27.0821 104.35 26.839 104.613 26.5206C104.876 26.2022 105.074 25.8174 105.208 25.3626C105.343 24.9078 105.408 24.3988 105.408 23.8338C105.408 22.6671 105.198 21.8222 104.779 21.2975C104.36 20.7727 103.731 20.5103 102.894 20.5103C102.44 20.5103 102.053 20.589 101.737 20.7482C101.419 20.9074 101.145 21.154 100.913 21.4899H100.86L100.659 20.6958H99.3886V29.9648H99.3904ZM91.7119 27.3165H93.6112L94.6412 25.7282L95.0688 24.7487L95.4699 25.7282L96.4999 27.3165H98.5211L96.3674 23.8741L98.3868 20.6958H96.5017L95.5918 22.1126L95.1907 23.0397L94.8161 22.1126L93.9469 20.6958H91.8727L93.8797 23.9265L91.7119 27.3165ZM87.2861 22.4432C87.5264 22.1266 87.8603 21.9657 88.2879 21.9657C88.779 21.9657 89.1253 22.1528 89.3303 22.5289C89.5352 22.905 89.6377 23.3965 89.6377 24.0052C89.6377 24.7119 89.5264 25.2279 89.3038 25.555C89.0811 25.8821 88.7419 26.0448 88.2861 26.0448C88.0458 26.0448 87.8391 25.9958 87.6642 25.8926C87.491 25.7912 87.3497 25.6477 87.2437 25.4623C87.1359 25.2769 87.0564 25.06 87.0016 24.8134C86.9486 24.5667 86.9221 24.2974 86.9221 24.0052C86.9221 23.2811 87.0423 22.7598 87.2843 22.4415M85.325 25.4343C85.4539 25.8681 85.65 26.2355 85.9133 26.5398C86.1765 26.8442 86.5034 27.0803 86.8974 27.2483C87.2896 27.4144 87.7525 27.5002 88.2879 27.5002C89.2861 27.5002 90.0599 27.1975 90.6094 26.5941C91.1571 25.9888 91.431 25.1265 91.431 24.0052C91.431 23.484 91.3656 23.0082 91.2384 22.5744C91.1094 22.1423 90.9151 21.7733 90.6554 21.4689C90.3974 21.1645 90.0723 20.9284 89.6783 20.7605C89.2861 20.5925 88.8232 20.5086 88.2879 20.5086C87.2896 20.5086 86.514 20.8112 85.961 21.4164C85.408 22.0216 85.1306 22.884 85.1306 24.0052C85.1306 24.5265 85.196 25.004 85.325 25.4343ZM80.1023 22.4415C80.3426 22.1249 80.6765 21.9639 81.1059 21.9639C81.5953 21.9639 81.9433 22.1511 82.1483 22.5272C82.3532 22.9032 82.4557 23.3948 82.4557 24.0035C82.4557 24.7102 82.3444 25.2262 82.1218 25.5533C81.8992 25.8804 81.5599 26.0431 81.1059 26.0431C80.8638 26.0431 80.6571 25.9941 80.484 25.8909C80.3108 25.7894 80.1695 25.646 80.0617 25.4606C79.9557 25.2752 79.8744 25.0583 79.8214 24.8116C79.7684 24.565 79.7419 24.2956 79.7419 24.0035C79.7419 23.2793 79.8638 22.7581 80.1041 22.4397M78.1447 25.4326C78.2737 25.8664 78.4698 26.2337 78.7331 26.5381C78.9963 26.8425 79.3232 27.0786 79.7154 27.2465C80.1076 27.4127 80.5723 27.4984 81.1059 27.4984C82.1041 27.4984 82.878 27.1958 83.4257 26.5923C83.9751 25.9871 84.2472 25.1247 84.2472 24.0035C84.2472 23.4822 84.1818 23.0064 84.0529 22.5726C83.9239 22.1406 83.7295 21.7715 83.4716 21.4671C83.2136 21.1628 82.8868 20.9266 82.4946 20.7587C82.1023 20.5908 81.6377 20.5068 81.1041 20.5068C80.1059 20.5068 79.3285 20.8094 78.7772 21.4147C78.2242 22.0199 77.9486 22.8823 77.9486 24.0035C77.9486 24.5248 78.0122 25.0023 78.143 25.4326M73.2136 23.3948V22.0042C73.3108 21.9954 73.4203 21.9867 73.5422 21.9779C73.6624 21.9692 73.8249 21.9639 74.0299 21.9639C74.4398 21.9639 74.7225 22.0234 74.8797 22.1441C75.0352 22.263 75.1129 22.4362 75.1129 22.6671C75.1129 22.8788 75.0228 23.0537 74.8391 23.1901C74.6571 23.3266 74.4221 23.3948 74.1377 23.3948H73.2136ZM73.2136 24.4548H74.1094C74.5546 24.4548 74.8656 24.5265 75.0387 24.6734C75.2119 24.8186 75.3002 25.0075 75.3002 25.2367C75.3002 25.5096 75.1977 25.7142 74.9928 25.8454C74.7878 25.9783 74.4451 26.0431 73.9627 26.0431C73.802 26.0431 73.6677 26.0396 73.5617 26.0308C73.4557 26.0221 73.3391 26.0081 73.2136 25.9906V24.4548ZM71.5157 27.3007C71.8267 27.3357 72.1924 27.3655 72.6129 27.3865C73.0316 27.4074 73.4292 27.4197 73.8037 27.4197C74.9362 27.4197 75.7578 27.2553 76.2702 26.9299C76.7825 26.6028 77.0387 26.1095 77.0387 25.4466C77.0387 25.0233 76.9327 24.6769 76.7172 24.4076C76.5034 24.1382 76.1553 23.951 75.6748 23.8443V23.7918C76.0582 23.6589 76.3391 23.4472 76.5175 23.1569C76.696 22.8648 76.7843 22.5656 76.7843 22.256C76.7843 21.6998 76.5776 21.2817 76.1624 21.0054C75.7472 20.7272 75.0493 20.5873 74.0688 20.5873C73.5599 20.5873 73.0846 20.6013 72.643 20.6275C72.2013 20.6538 71.8249 20.68 71.5122 20.7062V27.3007H71.5157ZM66.4398 25.7982C66.2931 25.6617 66.2189 25.4693 66.2189 25.2227C66.2189 25.046 66.2772 24.8991 66.3921 24.7854C66.5087 24.6717 66.6641 24.5825 66.8603 24.5213C67.0564 24.46 67.2807 24.4198 67.5352 24.4023C67.7896 24.3848 68.0546 24.3883 68.3302 24.4163V25.2769C68.233 25.4536 68.0811 25.618 67.8762 25.7737C67.6712 25.9294 67.3938 26.0046 67.0458 26.0046C66.7878 26.0046 66.5846 25.9364 66.438 25.7999M65.2542 22.3627C65.5034 22.2473 65.8232 22.1546 66.2118 22.0846C66.5988 22.0147 66.968 21.9797 67.3143 21.9797C67.779 21.9797 68.0776 22.0881 68.2101 22.3033C68.3444 22.5202 68.3797 22.8753 68.3179 23.3703C67.7277 23.344 67.1959 23.3633 66.7189 23.4298C66.2419 23.4962 65.832 23.6152 65.4875 23.7883C65.1447 23.9598 64.8815 24.1854 64.6977 24.4635C64.5157 24.7417 64.4239 25.0828 64.4239 25.4903C64.4239 25.7807 64.4733 26.0448 64.5723 26.2775C64.6694 26.5119 64.8072 26.7148 64.9875 26.8862C65.1659 27.0594 65.3797 27.1905 65.6288 27.2833C65.8797 27.376 66.1588 27.4232 66.4716 27.4232C66.9698 27.4232 67.3797 27.3235 67.6959 27.1258C68.0122 26.9264 68.2595 26.6903 68.438 26.4174H68.5051L68.786 27.3305H70.203C70.0952 27.0121 70.0299 26.6745 70.0034 26.3177C69.9769 25.9609 69.9645 25.5918 69.9698 25.2122C69.9733 24.8326 69.9892 24.446 70.0157 24.0542C70.0422 23.6624 70.0564 23.2706 70.0564 22.8823C70.0564 22.5289 70.0175 22.2106 69.9415 21.9289C69.8656 21.6456 69.7366 21.4042 69.5546 21.2013C69.3726 20.9966 69.1253 20.8409 68.8126 20.7307C68.4998 20.6205 68.1129 20.5663 67.6482 20.5663C67.1129 20.5663 66.6005 20.6118 66.1094 20.7062C65.62 20.799 65.1959 20.9249 64.839 21.0841L65.2542 22.3697V22.3627ZM61.5899 22.4415C61.786 22.7598 61.8832 23.2094 61.8832 23.7918C61.8832 24.5947 61.7578 25.172 61.5087 25.5201C61.2578 25.8681 60.885 26.0431 60.385 26.0431C60.1429 26.0431 59.9503 26.0151 59.8037 25.9574C59.6571 25.8996 59.521 25.8227 59.3956 25.7247V22.9715C59.5016 22.6356 59.6518 22.3837 59.8443 22.2158C60.0352 22.0479 60.3019 21.9639 60.6394 21.9639C61.0776 21.9639 61.3938 22.1231 61.5899 22.4415ZM57.6571 29.963H59.3956V27.2483C59.574 27.3357 59.7525 27.4004 59.9309 27.4407C60.1094 27.4809 60.3355 27.5002 60.6129 27.5002C61.1041 27.5002 61.5387 27.4162 61.9168 27.2483C62.2949 27.0803 62.6164 26.8372 62.8797 26.5188C63.1429 26.2005 63.3408 25.8157 63.4751 25.3609C63.6076 24.9061 63.6747 24.3971 63.6747 23.8321C63.6747 22.6654 63.4645 21.8205 63.0458 21.2957C62.627 20.771 61.9981 20.5086 61.1606 20.5086C60.7065 20.5086 60.3196 20.5873 60.0033 20.7465C59.6871 20.9057 59.4132 21.1523 59.1818 21.4881H59.1288L58.9274 20.694H57.6571V29.963ZM51.7984 25.8716C51.9044 25.6775 52.0033 25.4343 52.0917 25.1422C52.1818 24.8519 52.2595 24.5388 52.3267 24.2012C52.3938 23.8653 52.4486 23.519 52.4945 23.1621C52.5387 22.8035 52.5705 22.4677 52.5881 22.1493H53.9927V25.8699H51.8002L51.7984 25.8716ZM56.7065 25.7929H55.7295V20.694H51.0758C51.0758 21.5144 51.0351 22.2263 50.9556 22.8263C50.8761 23.4263 50.7789 23.93 50.6676 24.3358C50.5563 24.7417 50.445 25.0618 50.3337 25.2962C50.2224 25.5305 50.1305 25.695 50.0599 25.7929H49.2701V28.8243H50.5404L50.7418 27.3147H55.2348L55.4362 28.8243H56.7065V25.7929ZM45.6323 24.5737C46.203 24.5737 46.5934 24.6262 46.8019 24.7329C47.0122 24.8379 47.1164 25.0058 47.1164 25.2367C47.1164 25.7492 46.71 26.0046 45.8991 26.0046C45.5422 26.0046 45.2189 25.9696 44.9291 25.8979C44.6394 25.8279 44.392 25.7352 44.1871 25.6198L43.8125 26.9579C44.0545 27.0908 44.3549 27.208 44.7153 27.3077C45.0758 27.4092 45.5016 27.4599 45.9927 27.4599C46.4839 27.4599 46.9061 27.4074 47.263 27.3007C47.6199 27.1958 47.9168 27.0541 48.1517 26.8774C48.3885 26.7008 48.5634 26.4909 48.68 26.2477C48.7966 26.0063 48.8531 25.7422 48.8531 25.4606C48.8531 25.011 48.7542 24.6507 48.5581 24.3813C48.362 24.1119 48.0281 23.9248 47.5546 23.8198V23.7674C47.733 23.7061 47.8867 23.6187 48.0157 23.5085C48.1447 23.3983 48.2542 23.2723 48.3425 23.1306C48.4327 22.989 48.4963 22.842 48.5369 22.6881C48.5775 22.5342 48.597 22.382 48.597 22.2316C48.597 21.6928 48.4079 21.2817 48.0281 21.0001C47.65 20.7167 47.0758 20.5768 46.309 20.5768C45.809 20.5768 45.339 20.631 44.8973 20.7412C44.4556 20.8514 44.1023 20.9826 43.8337 21.1313L44.2083 22.4415C44.369 22.3452 44.5828 22.2508 44.8496 22.1633C45.1164 22.0759 45.4238 22.0304 45.7719 22.0304C46.1376 22.0304 46.4097 22.0811 46.5881 22.1826C46.7666 22.284 46.8549 22.4555 46.8549 22.6933C46.8549 22.8962 46.7542 23.0589 46.5546 23.1831C46.3549 23.3056 46.097 23.3685 45.786 23.3685H44.9697V24.5737H45.6252H45.6323Z" fill="white"/>
<path d="M120.889 8.28013H115.325V9.80194H117.21V14.9009H119.003V9.80194H120.889V8.28013ZM112.809 14.9009H114.548V8.28013H112.809V10.7692H110.629V8.28013H108.89V14.9009H110.629V12.2911H112.809V14.9009ZM105.821 9.85441C106.003 10.1098 106.076 10.4771 106.04 10.9529H103.565C103.609 10.5016 103.74 10.143 103.957 9.87365C104.175 9.60428 104.51 9.46959 104.963 9.46959C105.353 9.46959 105.638 9.59728 105.821 9.85441ZM106.871 13.2059C106.721 13.3196 106.5 13.4333 106.21 13.5435C105.922 13.6537 105.595 13.7097 105.229 13.7097C104.643 13.7097 104.219 13.5697 103.957 13.2864C103.696 13.003 103.551 12.5832 103.525 12.0287H107.523C107.567 11.7995 107.601 11.5791 107.623 11.3657C107.645 11.1541 107.657 10.9547 107.657 10.7692C107.657 10.2567 107.581 9.82818 107.429 9.48358C107.277 9.14074 107.078 8.86611 106.827 8.66321C106.576 8.4603 106.291 8.31511 105.97 8.2259C105.648 8.13844 105.32 8.09297 104.98 8.09297C103.964 8.09297 103.175 8.38333 102.613 8.96582C102.051 9.5483 101.77 10.4229 101.77 11.5879C101.77 12.6741 102.019 13.5277 102.519 14.1505C103.017 14.7732 103.807 15.0845 104.887 15.0845C105.404 15.0845 105.892 15.0111 106.351 14.8659C106.811 14.7207 107.173 14.5423 107.442 14.3289L106.869 13.2041L106.871 13.2059ZM98.9115 14.9009H100.583V8.28013H98.7648L97.3478 10.743L96.9592 11.6036H96.9062L96.5316 10.7692L94.9927 8.28013H93.1871V14.9009H94.7383V11.8555L94.5652 10.4911H94.6447L95.1517 11.6299L96.5298 13.6817H97.1588L98.4168 11.6299L98.9503 10.4911H99.0175L98.9115 11.8677V14.9009ZM88.1111 13.3843C87.9644 13.2479 87.8902 13.0555 87.8902 12.8088C87.8902 12.6321 87.9485 12.487 88.0651 12.3715C88.1818 12.2578 88.3372 12.1686 88.5333 12.1056C88.7295 12.0444 88.9556 12.0042 89.2083 11.9867C89.4627 11.9692 89.7277 11.9727 90.0033 12.0007V12.8613C89.9044 13.038 89.7542 13.2024 89.5492 13.3581C89.3443 13.512 89.0669 13.5907 88.7189 13.5907C88.4609 13.5907 88.2577 13.5225 88.1111 13.3861M86.9273 9.94887C87.1765 9.83342 87.4962 9.74072 87.8832 9.67075C88.2719 9.60078 88.6394 9.56405 88.9856 9.56405C89.4503 9.56405 89.7489 9.6725 89.8832 9.8894C90.0174 10.1063 90.051 10.4614 89.9892 10.9547C89.4008 10.9284 88.8673 10.9477 88.3902 11.0141C87.9132 11.0806 87.5033 11.1996 87.1605 11.3727C86.8178 11.5459 86.5545 11.7698 86.3708 12.0479C86.1888 12.326 86.0969 12.6671 86.0969 13.0747C86.0969 13.3651 86.1464 13.6292 86.2453 13.8618C86.3443 14.0962 86.4803 14.2991 86.6605 14.4706C86.839 14.642 87.0528 14.7749 87.3019 14.8676C87.551 14.9603 87.8319 15.0076 88.1446 15.0076C88.6446 15.0076 89.051 14.9079 89.369 14.7102C89.6853 14.5108 89.9326 14.2747 90.1111 14.0018H90.1782L90.4591 14.9149H91.8761C91.7701 14.5965 91.703 14.2589 91.6765 13.9021C91.65 13.5435 91.6376 13.1762 91.6429 12.7966C91.6464 12.417 91.6623 12.0304 91.6888 11.6386C91.7153 11.245 91.7295 10.855 91.7295 10.4666C91.7295 10.1133 91.6906 9.79494 91.6146 9.51332C91.5386 9.2317 91.4097 8.98856 91.2259 8.78565C91.044 8.58274 90.7966 8.42531 90.4839 8.31511C90.1712 8.20491 89.7842 8.14894 89.3196 8.14894C88.7842 8.14894 88.2719 8.19442 87.7825 8.28713C87.2931 8.37983 86.8673 8.50578 86.5121 8.66495L86.9273 9.94887ZM85.7772 8.28013H80.2118V9.80194H82.0969V14.9009H83.8902V9.80194H85.7754V8.28013H85.7772ZM77.7789 10.0276C77.975 10.3459 78.074 10.7955 78.074 11.378C78.074 12.1826 77.9485 12.7581 77.6994 13.1062C77.4503 13.4543 77.0757 13.6292 76.5757 13.6292C76.3354 13.6292 76.1411 13.5995 75.9944 13.5435C75.846 13.4858 75.7118 13.4088 75.5863 13.3126V10.5593C75.6923 10.2235 75.8425 9.97161 76.0351 9.80369C76.2277 9.63576 76.4927 9.5518 76.8301 9.5518C77.2665 9.5518 77.5846 9.71098 77.7807 10.0293M73.8478 17.5509H75.5863V14.8361C75.7648 14.9236 75.9432 14.9883 76.1217 15.0286C76.3001 15.0688 76.528 15.088 76.8036 15.088C77.293 15.088 77.7277 15.0041 78.1075 14.8361C78.4856 14.6682 78.8072 14.4251 79.0704 14.1085C79.3337 13.7901 79.5316 13.4053 79.6658 12.9505C79.8001 12.4957 79.8672 11.9867 79.8672 11.42C79.8672 10.255 79.657 9.41012 79.2383 8.88361C78.8195 8.35884 78.1906 8.09646 77.3531 8.09646C76.899 8.09646 76.5121 8.17518 76.1959 8.33436C75.8796 8.49353 75.6058 8.74017 75.3725 9.07602H75.3195L75.1199 8.28188H73.8496V17.5509H73.8478ZM68.7718 13.3861C68.6252 13.2496 68.551 13.0572 68.551 12.8106C68.551 12.6339 68.6093 12.4887 68.7241 12.3733C68.8407 12.2596 68.9944 12.1704 69.1923 12.1074C69.3884 12.0462 69.6128 12.0059 69.8672 11.9884C70.1216 11.9709 70.3867 11.9744 70.6623 12.0024V12.863C70.5651 13.0397 70.4132 13.2041 70.2082 13.3598C70.0033 13.5137 69.7259 13.5925 69.3778 13.5925C69.1199 13.5925 68.9167 13.5242 68.77 13.3878M67.5863 9.95062C67.8354 9.83517 68.1534 9.74246 68.5421 9.6725C68.9308 9.60253 69.2983 9.56579 69.6464 9.56579C70.1093 9.56579 70.4079 9.67424 70.5421 9.89115C70.6764 10.108 70.7118 10.4631 70.6499 10.9564C70.0616 10.9302 69.528 10.9494 69.051 11.0159C68.5739 11.0824 68.164 11.2013 67.8195 11.3745C67.4768 11.5476 67.2135 11.7715 67.0298 12.0497C66.8478 12.3278 66.7559 12.6689 66.7559 13.0764C66.7559 13.3668 66.8036 13.6309 66.9026 13.8636C67.0015 14.098 67.1393 14.3009 67.3177 14.4723C67.4962 14.6437 67.71 14.7767 67.9591 14.8694C68.21 14.9621 68.4909 15.0093 68.8019 15.0093C69.3001 15.0093 69.71 14.9096 70.0262 14.712C70.3425 14.5125 70.5898 14.2764 70.7683 14.0035H70.8354L71.1163 14.9166H72.5351C72.4273 14.5983 72.3619 14.2607 72.3337 13.9038C72.3072 13.5452 72.2966 13.1779 72.3001 12.7983C72.3036 12.4187 72.3195 12.0322 72.3478 11.6404C72.3743 11.2468 72.3867 10.8567 72.3867 10.4684C72.3867 10.115 72.3496 9.79669 72.2736 9.51507C72.1976 9.23345 72.0686 8.99031 71.8849 8.7874C71.7029 8.58449 71.4556 8.42706 71.1428 8.31686C70.8301 8.20666 70.4432 8.15069 69.9803 8.15069C69.445 8.15069 68.9326 8.19617 68.4414 8.28888C67.9503 8.38158 67.528 8.50753 67.1711 8.6667L67.5863 9.95062ZM63.9485 14.9044H65.687V8.28013H60.0951V14.9009H61.8336V9.80194H63.9467V14.9009L63.9485 14.9044ZM57.028 9.85791C57.21 10.1133 57.2842 10.4806 57.2471 10.9564H54.7736C54.8177 10.5051 54.9485 10.1465 55.1658 9.87715C55.3831 9.60778 55.717 9.47309 56.1711 9.47309C56.5615 9.47309 56.8478 9.60078 57.0297 9.85791M58.0792 13.2094C57.929 13.3231 57.7082 13.4368 57.4202 13.547C57.1322 13.6572 56.8054 13.7132 56.4396 13.7132C55.8531 13.7132 55.429 13.5732 55.1675 13.2898C54.9061 13.0065 54.7612 12.5867 54.7347 12.0322H58.7347C58.7789 11.803 58.8124 11.5826 58.8336 11.3692C58.8566 11.1576 58.8672 10.9582 58.8672 10.7727C58.8672 10.2602 58.7912 9.83167 58.6393 9.48708C58.4873 9.14424 58.2877 8.86961 58.0368 8.6667C57.7877 8.4638 57.5015 8.31861 57.1817 8.2294C56.8601 8.14194 56.5297 8.09646 56.1923 8.09646C55.1764 8.09646 54.3866 8.38683 53.8248 8.96932C53.2629 9.5518 52.982 10.4264 52.982 11.5914C52.982 12.6776 53.2311 13.5312 53.7311 14.154C54.2294 14.7767 55.0191 15.088 56.0986 15.088C56.6163 15.088 57.1039 15.0146 57.5633 14.8694C58.0227 14.7242 58.3866 14.5458 58.6534 14.3324L58.0792 13.2076V13.2094ZM46.4537 13.2881C46.6587 12.8386 46.8619 12.1126 47.0633 11.1103C47.2629 10.108 47.3901 8.82238 47.4449 7.24985H49.5174V13.2881H46.4537ZM52.5403 13.2881H51.3495V5.63184H45.7453C45.7541 6.89476 45.7099 7.98626 45.611 8.90984C45.5121 9.83342 45.3919 10.6013 45.2488 11.2135C45.1057 11.8275 44.9643 12.3015 44.8212 12.6374C44.6781 12.9732 44.5757 13.1901 44.5138 13.2864H43.5244V16.5574H44.823L45.0226 14.9026H51.0421L51.2435 16.5574H52.5421V13.2864L52.5403 13.2881Z" fill="white"/>
<path d="M20.0901 45.5926L19.56 45.1466C18.5989 44.3367 16.6519 42.9776 14.4204 42.9776H8.75435C5.42395 42.9776 2.05469 40.9625 2.05469 37.1107V3.17969H38.1272V37.109C38.1272 40.9607 34.7562 42.9758 31.4275 42.9758H25.7579C23.5282 42.9758 21.5812 44.3349 20.6201 45.1448L20.0901 45.5909V45.5926ZM3.69073 4.79945V37.109C3.69073 39.8972 6.23844 41.3561 8.75435 41.3561H14.4222C16.8003 41.3561 18.848 42.549 20.0918 43.4901C21.3356 42.549 23.3851 41.3561 25.7597 41.3561H31.4293C33.9452 41.3561 36.4929 39.8972 36.4929 37.109V4.79945H3.69073Z" fill="white"/>
<path d="M26.8574 6.42285H5.30078V24.1458C6.77958 24.1458 6.67534 24.8822 6.93859 25.6204C6.93859 25.2075 7.11527 24.8857 7.39266 24.6391L7.40149 24.5009C7.56404 17.3326 16.5552 8.60411 26.8574 6.42285ZM34.8804 24.1913V6.42285H33.3909C33.7143 6.72896 33.6789 7.10329 33.3167 7.35868C32.5871 7.86944 26.08 12.3474 31.7496 22.7657C31.8379 22.9266 31.9227 23.0823 32.004 23.2344C33.3185 22.6467 34.8804 23.5511 34.8804 24.1895" fill="white"/>
<path d="M20.3936 28.6659C23.284 27.4362 21.8688 30.9994 20.3706 31.2688C19.1975 30.8787 17.9483 27.1231 20.3936 28.6659Z" fill="white"/>
<path d="M20.3693 28.9421C22.2315 28.0973 21.3181 30.5444 20.3534 30.7298C19.5972 30.4622 18.7951 27.8839 20.3693 28.9421Z" fill="white"/>
<path d="M17.0776 38.4476C17.3974 38.4336 17.696 38.4214 17.9663 38.4161C16.1677 37.4243 15.0034 35.1609 14.4239 33.9837C13.9875 33.9941 13.0829 34.1796 11.9998 34.4927C11.6182 34.0081 11.3426 33.4729 11.1712 33.123C10.4945 33.1388 7.01042 34.0589 6.18003 35.0857C6.53339 35.6209 6.71537 35.7434 7.04929 36.0355C7.32845 35.969 7.85672 35.8798 8.49629 35.7871C7.24011 36.3678 6.1235 37.0518 5.53516 37.7794C6.24364 38.8499 6.2295 38.9776 6.90088 39.5654C7.90795 39.3222 10.3196 39.0126 12.7684 38.7747C12.1765 39.1421 11.68 39.5339 11.461 39.8995C11.8868 40.3805 12.0829 40.4767 12.4557 40.7216C13.3179 40.3822 16.7313 39.4569 18.1942 39.2208C17.7755 39.0598 17.4009 38.7695 17.0794 38.4494" fill="white"/>
<path d="M34.9841 34.9715C33.6308 34.9942 23.0407 37.1982 21.3799 38.5906C22.0884 39.3182 22.4488 39.4827 23.1184 39.8815C23.9753 39.7416 25.8304 39.5212 27.8622 39.3217C27.4364 39.6174 27.0919 39.92 26.9205 40.2086C27.3463 40.6896 27.5424 40.7858 27.9152 41.029C28.7774 40.6896 32.1909 39.7643 33.6538 39.5282C33.3145 39.3987 33.0053 39.1836 32.7297 38.9369C33.2474 38.9107 33.7244 38.8914 34.1361 38.8862C34.5866 38.5538 34.9859 36.1819 34.9859 34.9697" fill="white"/>
</svg>
