<svg width="175" height="50" viewBox="0 0 175 50" fill="none" xmlns="http://www.w3.org/2000/svg">
<path d="M18.9686 15.5762C10.4618 15.5762 3.56641 22.4823 3.56641 31.0025C3.56641 39.5226 10.4618 46.4288 18.9686 46.4288C27.4754 46.4288 34.3708 39.5226 34.3708 31.0025C34.3708 22.4823 27.4754 15.5762 18.9686 15.5762ZM18.9686 41.2377C13.3239 41.2377 8.7494 36.656 8.7494 31.0025C8.7494 25.3489 13.3239 20.7673 18.9686 20.7673C24.6133 20.7673 29.1878 25.3489 29.1878 31.0025C29.1878 36.656 24.6133 41.2377 18.9686 41.2377Z" fill="white"/>
<path d="M10.5929 25.5513C10.5929 25.3951 10.599 25.242 10.6052 25.0889C9.42179 26.758 8.72461 28.7977 8.72461 30.9997C8.72461 36.6532 13.2991 41.2349 18.9438 41.2349C21.0721 41.2349 23.0474 40.5826 24.6833 39.4708C24.6222 39.4708 24.561 39.477 24.4968 39.477C16.8186 39.477 10.5929 33.2415 10.5929 25.5513Z" fill="white"/>
<path d="M43.4281 25.5516C43.4281 14.4681 34.4565 5.48242 23.3902 5.48242C16.6111 5.48242 10.6269 8.85741 7.00038 14.0179C4.82016 17.3286 3.54199 21.2885 3.54199 25.5516C3.54199 26.547 3.61538 27.527 3.74992 28.4856C4.6795 22.8075 8.70664 18.1738 14.0364 16.3792C16.5836 13.4666 20.3233 11.6229 24.4972 11.6229C32.1753 11.6229 38.401 17.8584 38.401 25.5486C38.401 29.827 36.4746 33.6492 33.4443 36.2064C31.8634 40.6258 28.3256 44.1049 23.8795 45.6117C34.7194 45.3513 43.425 36.4698 43.425 25.5486L43.4281 25.5516Z" fill="white"/>
<path d="M18.9472 20.7683C24.5919 20.7683 29.1664 25.3499 29.1664 31.0035C29.1664 34.5255 27.3898 37.634 24.6836 39.4746C28.0197 39.4317 31.0714 38.2128 33.4473 36.2099C34.0283 34.5836 34.3494 32.8318 34.3494 31.0035C34.3494 22.4833 27.454 15.5771 18.9472 15.5771C17.2317 15.5771 15.5805 15.862 14.0394 16.3826C11.9907 18.7255 10.7155 21.7605 10.6055 25.0926C12.4585 22.4772 15.501 20.7683 18.9472 20.7683Z" fill="white"/>
<path d="M7.00331 37.0881C5.33374 34.5522 4.19318 31.6305 3.75285 28.4883C3.61831 29.306 3.54492 30.1482 3.54492 31.0057C3.54492 39.5259 10.4403 46.4321 18.9471 46.4321C20.6748 46.4321 22.3321 46.1442 23.8824 45.6174C23.7204 45.6205 23.5552 45.6235 23.3932 45.6235C16.614 45.6235 10.6299 42.2485 7.00331 37.0881Z" fill="white"/>
<path d="M29.0257 29.4564C27.8729 32.5373 24.9068 34.7332 21.4271 34.7332C16.9474 34.7332 13.3147 31.0949 13.3147 26.6081C13.3147 24.6756 13.9905 22.9024 15.1157 21.5059C12.3698 22.6115 10.2171 24.8747 9.25391 27.6923C9.80431 33.9461 15.0423 38.8524 21.4301 38.8524C23.3107 38.8524 25.0903 38.4267 26.6804 37.6672C28.2154 35.8756 29.145 33.5511 29.145 31.003C29.145 30.4762 29.1052 29.9586 29.0288 29.4564H29.0257Z" fill="white"/>
<path d="M18.9232 15.5763C25.8583 15.5763 31.7232 20.1672 33.6527 26.4823C33.5854 19.7752 28.1394 14.3574 21.4306 14.3574C19.1984 14.3574 17.1038 14.9608 15.3027 16.0082C16.4647 15.7264 17.6756 15.5763 18.9262 15.5763H18.9232Z" fill="white"/>
<path d="M25.2859 3.62305C18.5617 3.62305 12.5501 6.66114 8.53211 11.4388C7.96948 12.1095 8.13766 11.987 8.8012 11.2734C12.6235 7.16035 18.0725 4.5847 24.127 4.5847C35.6916 4.5847 45.0668 13.9746 45.0668 25.5574C45.0668 37.1401 35.6916 46.5301 24.127 46.5301C18.0755 46.5301 12.6265 43.9575 8.80426 39.8444C8.66972 39.7005 8.58104 39.7341 8.70947 39.8842C12.7244 44.5424 18.6596 47.4887 25.2828 47.4887C37.3764 47.4887 47.1798 37.67 47.1798 25.5574C47.1798 13.4448 37.3795 3.62305 25.2859 3.62305Z" fill="white"/>
<path d="M18.9471 15.5762C10.4403 15.5762 3.54492 22.4823 3.54492 31.0025C3.54492 39.5226 10.4403 46.4288 18.9471 46.4288C27.4539 46.4288 34.3493 39.5226 34.3493 31.0025C34.3493 22.4823 27.4539 15.5762 18.9471 15.5762ZM18.9471 41.2377C13.3024 41.2377 8.72791 36.656 8.72791 31.0025C8.72791 25.3489 13.3024 20.7673 18.9471 20.7673C24.5918 20.7673 29.1663 25.3489 29.1663 31.0025C29.1663 36.656 24.5918 41.2377 18.9471 41.2377Z" fill="#CFCFCF"/>
<path d="M21.4517 14.3604C14.7 14.3604 9.22656 19.8424 9.22656 26.6046C9.22656 33.3668 14.7 38.8489 21.4517 38.8489C28.2033 38.8489 33.6768 33.3668 33.6768 26.6046C33.6768 19.8424 28.2033 14.3604 21.4517 14.3604ZM21.4517 34.7328C16.972 34.7328 13.3393 31.0944 13.3393 26.6077C13.3393 22.121 16.972 18.4826 21.4517 18.4826C25.9314 18.4826 29.5641 22.121 29.5641 26.6077C29.5641 31.0944 25.9314 34.7328 21.4517 34.7328Z" fill="white"/>
<path d="M25.2859 3.62305C18.5617 3.62305 12.5501 6.66114 8.53211 11.4388C7.96948 12.1095 8.13766 11.987 8.8012 11.2734C12.6235 7.16035 18.0725 4.5847 24.127 4.5847C35.6916 4.5847 45.0668 13.9746 45.0668 25.5574C45.0668 37.1401 35.6916 46.5301 24.127 46.5301C18.0755 46.5301 12.6265 43.9575 8.80426 39.8444C8.66972 39.7005 8.58104 39.7341 8.70947 39.8842C12.7244 44.5424 18.6596 47.4887 25.2828 47.4887C37.3764 47.4887 47.1798 37.67 47.1798 25.5574C47.1798 13.4448 37.3795 3.62305 25.2859 3.62305Z" fill="#CFCFCF"/>
<path d="M23.3902 45.6207C34.4565 45.6207 43.4281 36.6351 43.4281 25.5515C43.4281 14.468 34.4565 5.48535 23.3902 5.48535C16.6111 5.48535 10.6269 8.86034 7.00038 14.0208C4.82016 17.3315 3.54199 21.2914 3.54199 25.5546C3.54199 29.8177 4.82016 33.7777 7.00038 37.0883C10.6269 42.2457 16.6111 45.6238 23.3902 45.6238V45.6207ZM24.4972 11.6259C32.1753 11.6259 38.401 17.8613 38.401 25.5515C38.401 33.2417 32.1753 39.4771 24.4972 39.4771C16.819 39.4771 10.5933 33.2417 10.5933 25.5515C10.5933 17.8613 16.819 11.6259 24.4972 11.6259Z" fill="white"/>
<path d="M55.9135 14.5195V21.83H59.6685V14.5195H60.7387V21.8545L61.4542 21.879L61.3808 24.6904H60.543L60.4696 22.7212H54.8555V14.5226H55.9135V14.5195Z" fill="white"/>
<path d="M67.0107 18.8745H63.8275V21.83H67.3746V22.7181H62.7695V14.5195H67.1911V15.4077H63.8275V17.9986H67.0107V18.8745Z" fill="white"/>
<path d="M69.7992 14.5195V17.9496H73.7591V14.5195H74.8293V22.7181H73.7591V18.8745H69.7992V22.7181H68.7412V14.5195H69.7992Z" fill="white"/>
<path d="M78.2107 15.4199H75.7217V14.5195H81.7823V15.4199H79.2779V22.7212H78.2077V15.4199H78.2107Z" fill="white"/>
<path d="M82.6875 14.6181C83.1982 14.5324 83.8678 14.4619 84.7179 14.4619C85.7637 14.4619 86.5281 14.7039 87.0143 15.1418C87.4638 15.5308 87.7298 16.128 87.7298 16.8569C87.7298 17.5858 87.5127 18.183 87.0969 18.6087C86.5403 19.2059 85.6261 19.5091 84.5956 19.5091C84.2806 19.5091 83.9871 19.4968 83.7455 19.4356V22.7187H82.6875V14.615V14.6181ZM83.7455 18.5719C83.9748 18.6332 84.2684 18.6577 84.62 18.6577C85.8951 18.6577 86.6718 18.036 86.6718 16.9059C86.6718 15.7758 85.9074 15.3011 84.7423 15.3011C84.2806 15.3011 83.929 15.3378 83.7455 15.3868V18.575V18.5719Z" fill="white"/>
<path d="M97.3195 14.5195V21.8545L98.0351 21.879L97.9617 24.6904H97.1361L97.0627 22.7212H91.9011L91.8277 24.6904H91.0021L90.9287 21.879L91.5494 21.8545C91.8522 21.294 92.1579 20.6999 92.3506 20.0536C92.6289 19.1042 92.7389 18.0109 92.7389 16.599V14.5195H97.3165H97.3195ZM93.7236 16.939C93.7236 18.2528 93.6012 19.3615 93.3107 20.2833C93.1426 20.8561 92.8857 21.4043 92.6441 21.8391H96.2646V15.3924H93.7266V16.9359L93.7236 16.939Z" fill="white"/>
<path d="M100.362 14.5195V17.9741C100.362 19.2757 100.338 20.3477 100.264 21.441L100.289 21.4533C100.702 20.6019 101.212 19.7137 101.805 18.7398L104.453 14.5195H105.511V22.7181H104.515V19.2267C104.515 17.9006 104.527 16.9267 104.612 15.8946L104.576 15.8824C104.175 16.7828 103.616 17.7322 103.059 18.6449L100.497 22.7212H99.3652V14.5226H100.362V14.5195Z" fill="white"/>
<path d="M108.676 20.1394L107.826 22.7181H106.731L109.514 14.5195H110.789L113.584 22.7181H112.456L111.581 20.1394H108.679H108.676ZM111.361 19.3125L110.56 16.9512C110.379 16.4153 110.257 15.9283 110.135 15.4536H110.11C109.988 15.9406 109.857 16.4398 109.698 16.939L108.896 19.3125H111.364H111.361Z" fill="white"/>
<path d="M119.128 14.5195V15.4077H115.834V22.7212H114.776V14.5226H119.125L119.128 14.5195Z" fill="white"/>
<path d="M121.09 14.5195V17.9496H125.05V14.5195H126.12V22.7181H125.05V18.8745H121.09V22.7181H120.032V14.5195H121.09Z" fill="white"/>
<path d="M134.942 18.5346C134.942 21.3583 133.23 22.8529 131.142 22.8529C129.053 22.8529 127.46 21.1745 127.46 18.6938C127.46 16.0906 129.074 14.3848 131.264 14.3848C133.453 14.3848 134.942 16.0998 134.942 18.5346ZM128.591 18.6693C128.591 20.4211 129.539 21.9892 131.203 21.9892C132.866 21.9892 133.826 20.4457 133.826 18.5836C133.826 16.9543 132.976 15.2515 131.215 15.2515C129.454 15.2515 128.591 16.8685 128.591 18.6693Z" fill="white"/>
<path d="M142.031 22.4518C141.642 22.6447 140.866 22.8407 139.869 22.8407C137.56 22.8407 135.823 21.3799 135.823 18.6909C135.823 16.002 137.56 14.3818 140.101 14.3818C141.122 14.3818 141.765 14.5993 142.043 14.7463L141.789 15.6099C141.388 15.417 140.817 15.27 140.138 15.27C138.218 15.27 136.942 16.4981 136.942 18.6511C136.942 20.6571 138.098 21.9465 140.089 21.9465C140.731 21.9465 141.388 21.8117 141.813 21.6065L142.031 22.4457V22.4518Z" fill="white"/>
<path d="M145.33 15.4199H142.841V14.5195H148.901V15.4199H146.397V22.7212H145.327V15.4199H145.33Z" fill="white"/>
<path d="M150.803 14.5195V17.9741C150.803 19.2757 150.779 20.3477 150.706 21.441L150.73 21.4533C151.143 20.6019 151.654 19.7137 152.247 18.7398L154.895 14.5195H155.953V22.7181H154.956V19.2267C154.956 17.9006 154.968 16.9267 155.054 15.8946L155.017 15.8824C154.617 16.7828 154.057 17.7322 153.5 18.6449L150.938 22.7212H149.807V14.5226H150.803V14.5195Z" fill="white"/>
<path d="M158.837 14.5195V18.1579H159.164L161.971 14.5195H163.246L160.149 18.2773C161.497 18.458 162.02 19.288 162.445 20.3936C162.748 21.2327 162.98 21.9861 163.344 22.7181H162.2C161.91 22.1577 161.677 21.4288 161.46 20.7825C161.084 19.7014 160.561 18.9572 159.176 18.9572H158.837V22.7181H157.791V14.5195H158.837Z" fill="white"/>
<path d="M165.368 14.5195V17.9741C165.368 19.2757 165.343 20.3477 165.27 21.441L165.295 21.4533C165.707 20.6019 166.218 19.7137 166.811 18.7398L169.459 14.5195H170.517V22.7181H169.52V19.2267C169.52 17.9006 169.533 16.9267 169.618 15.8946L169.582 15.8824C169.181 16.7828 168.621 17.7322 168.065 18.6449L165.502 22.7212H164.371V14.5226H165.368V14.5195Z" fill="white"/>
<path d="M55.8523 27.4863V30.9409C55.8523 32.2425 55.8278 33.3145 55.7545 34.4078L55.7789 34.4201C56.1917 33.5686 56.7024 32.6805 57.2956 31.7066L59.9437 27.4863H61.0017V35.6849H60.0048V32.1935C60.0048 30.8674 60.0171 29.8935 60.1027 28.8614L60.066 28.8492C59.6654 29.7496 59.1058 30.699 58.5493 31.6116L55.9869 35.688H54.8555V27.4894H55.8523V27.4863Z" fill="white"/>
<path d="M66.9705 28.3867H64.4814V27.4863H70.542V28.3867H68.0377V35.688H66.9674V28.3867H66.9705Z" fill="white"/>
<path d="M75.6884 31.8413H72.5053V34.7968H76.0523V35.6849H71.4473V27.4863H75.8689V28.3745H72.5053V30.9654H75.6884V31.8413Z" fill="white"/>
<path d="M83.1154 27.4865V35.685H82.0452V28.3716H79.336V30.8553C79.336 32.6316 79.2626 34.6131 78.1098 35.391C77.8071 35.584 77.3331 35.78 76.8592 35.78L76.7246 34.9286C77.0518 34.8673 77.3943 34.6744 77.5869 34.4906C78.2413 33.8444 78.3024 32.2519 78.3024 30.938V27.4834H83.1124L83.1154 27.4865Z" fill="white"/>
<path d="M89.1855 31.8413H86.0023V34.7968H89.5494V35.6849H84.9443V27.4863H89.3659V28.3745H86.0023V30.9654H89.1855V31.8413Z" fill="white"/>
<path d="M97.815 32.0871C97.7538 30.9417 97.6805 29.5696 97.6927 28.5467H97.656C97.3777 29.5084 97.0383 30.5282 96.6224 31.6614L95.1761 35.6397H94.375L93.0509 31.7349C92.6626 30.5803 92.3354 29.5206 92.103 28.5498H92.0785C92.0541 29.5727 91.9929 30.9447 91.9226 32.1759L91.7024 35.6917H90.6934L91.2652 27.4932H92.6137L94.0111 31.4592C94.3505 32.4699 94.6318 33.3703 94.8367 34.2217H94.8734C95.0783 33.3948 95.3718 32.4944 95.7357 31.4592L97.1943 27.4932H98.5428L99.0534 35.6917H98.0199L97.815 32.0901V32.0871Z" fill="white"/>
<path d="M104.915 31.8413H101.732V34.7968H105.279V35.6849H100.674V27.4863H105.095V28.3745H101.732V30.9654H104.915V31.8413Z" fill="white"/>
<path d="M112.489 27.4863V34.8213L113.205 34.8458L113.132 37.6572H112.306L112.233 35.688H107.071L106.998 37.6572H106.172L106.099 34.8458L106.719 34.8213C107.022 34.2608 107.328 33.6667 107.521 33.0204C107.799 32.071 107.909 30.9777 107.909 29.5658V27.4863H112.486H112.489ZM108.893 29.9058C108.893 31.2196 108.771 32.3283 108.481 33.2501C108.312 33.8228 108.056 34.3711 107.814 34.8059H111.435V28.3592H108.897V29.9027L108.893 29.9058Z" fill="white"/>
<path d="M115.532 27.4863V30.9409C115.532 32.2425 115.508 33.3145 115.434 34.4078L115.459 34.4201C115.871 33.5686 116.382 32.6805 116.975 31.7066L119.623 27.4863H120.681V35.6849H119.685V32.1935C119.685 30.8674 119.697 29.8935 119.782 28.8614L119.746 28.8492C119.345 29.7496 118.786 30.699 118.229 31.6116L115.667 35.688H114.535V27.4894H115.532V27.4863Z" fill="white"/>
<path d="M123.579 27.4863V34.7968H127.334V27.4863H128.405V34.8213L129.12 34.8458L129.047 37.6572H128.209L128.136 35.688H122.521V27.4894H123.579V27.4863Z" fill="white"/>
<path d="M131.432 27.4863V30.9409C131.432 32.2425 131.408 33.3145 131.335 34.4078L131.359 34.4201C131.772 33.5686 132.282 32.6805 132.876 31.7066L135.524 27.4863H136.582V35.6849H135.585V32.1935C135.585 30.8674 135.597 29.8935 135.683 28.8614L135.646 28.8492C135.245 29.7496 134.686 30.699 134.129 31.6116L131.567 35.688H130.436V27.4894H131.432V27.4863Z" fill="white"/>
<path d="M139.477 27.4863V30.9164H143.437V27.4863H144.507V35.6849H143.437V31.8413H139.477V35.6849H138.419V27.4863H139.477Z" fill="white"/>
<path d="M147.391 27.4863V30.552C147.632 30.5152 148.097 30.4907 148.363 30.4907C150.051 30.4907 151.519 31.2319 151.519 33.0572C151.519 33.8106 151.277 34.3711 150.889 34.7968C150.219 35.5042 149.079 35.7584 147.975 35.7584C147.247 35.7584 146.688 35.7094 146.336 35.6604V27.4863H147.394H147.391ZM147.391 34.8703C147.611 34.9193 147.877 34.9315 148.241 34.9315C149.409 34.9315 150.415 34.3343 150.415 33.0939C150.415 31.8536 149.32 31.3299 148.229 31.3299C147.84 31.3299 147.525 31.3666 147.391 31.3911V34.8703ZM153.5 27.4863V35.6849H152.43V27.4863H153.5Z" fill="white"/>
</svg>
